<svg width="30" height="30" viewBox="0 0 30 30" fill="none" xmlns="http://www.w3.org/2000/svg">
<path fill-rule="evenodd" clip-rule="evenodd" d="M26.8599 12.8125C26.8294 12.5861 26.7961 12.36 26.7601 12.1342L26.68 11.6324C26.3984 9.86825 24.8767 8.57015 23.0901 8.57015L12.9439 8.57015C12.5676 7.23145 11.3379 6.25 9.87893 6.25H7.01447C5.16094 6.25 3.5997 7.63498 3.37871 9.47529L3.0381 12.3117C2.67229 15.358 2.7667 18.4419 3.31816 21.4601C3.61318 23.0748 4.96361 24.2852 6.60084 24.4023L8.49335 24.5377C12.8255 24.8476 17.1743 24.8476 21.5064 24.5377L23.5538 24.3912C24.5645 24.3189 25.4594 23.8054 26.0359 23.0325C26.8029 22.2967 27.4066 21.398 27.7972 20.3937L29.359 16.3776C30.026 14.6623 28.7607 12.8125 26.9202 12.8125H26.8599ZM7.01447 8.125C6.11001 8.125 5.34817 8.80082 5.24033 9.69884L4.89972 12.5352C4.55633 15.3949 4.64495 18.2899 5.16263 21.1231C5.30391 21.8964 5.9506 22.476 6.73464 22.5321L6.84215 22.5398L9.75725 15.0091C10.2697 13.6852 11.5433 12.8125 12.963 12.8125H24.9667C24.9482 12.6848 24.9288 12.5572 24.9085 12.4298L24.8284 11.928C24.6921 11.0737 23.9552 10.4451 23.0901 10.4451L12.1991 10.4451C11.6403 10.4451 11.1874 9.99219 11.1874 9.43346C11.1874 8.71082 10.6016 8.125 9.87893 8.125H7.01447Z" fill="#041628"/>
</svg>
