<svg width="24" height="23" viewBox="0 0 24 23" fill="none" xmlns="http://www.w3.org/2000/svg">
<path fill-rule="evenodd" clip-rule="evenodd" d="M19.6016 15.9993C20.0236 13.9499 20.0501 11.8518 19.6801 9.79449L19.616 9.43828C19.5263 8.93952 19.0414 8.57253 18.4722 8.57253H9.75939C9.17432 8.57253 8.70003 8.15167 8.70003 7.63251C8.70003 7.24204 8.34331 6.9255 7.90327 6.9255H5.6117C5.01467 6.9255 4.51179 7.32136 4.4406 7.84735L4.16812 9.86085C3.89639 11.8688 3.96652 13.9015 4.37615 15.8909C4.46868 16.3402 4.8922 16.6771 5.40568 16.7097L6.91968 16.8058C10.3023 17.0205 13.6978 17.0205 17.0804 16.8058L18.7183 16.7018C19.1588 16.6738 19.5222 16.3848 19.6016 15.9993ZM21.1613 9.5847C21.5581 11.7909 21.5297 14.0408 21.0772 16.2385C20.8748 17.2214 19.9484 17.9581 18.8253 18.0294L17.1874 18.1334C13.7336 18.3527 10.2665 18.3527 6.81264 18.1334L5.29864 18.0373C4.10261 17.9614 3.1161 17.1768 2.90058 16.1301C2.46392 14.0094 2.38916 11.8426 2.67882 9.70215L2.9513 7.68866C3.11301 6.49375 4.25541 5.59448 5.6117 5.59448L7.90327 5.59448C9.02102 5.59448 9.95229 6.30299 10.1578 7.24151L18.4722 7.24151C19.7786 7.24151 20.8913 8.08379 21.0972 9.22849L21.1613 9.5847Z" fill="#242222"/>
</svg>
