<svg width="35" height="35" viewBox="0 0 35 35" fill="none" xmlns="http://www.w3.org/2000/svg">
<path d="M6.2902 10.2588C6.09878 11.4073 6.14573 12.5829 6.42812 13.7125L6.98181 15.9273C7.32624 17.3049 7.8204 18.6408 8.45549 19.911L10 23L13 28L16.5 34C16.7228 34.4456 17.3438 34.4842 17.6202 34.0697L18 33.5L22 27L25.5 21.5L27.5693 17.3614C27.8561 16.7879 28.1018 16.1947 28.3046 15.5863L28.5505 14.8486C28.8482 13.9554 29 13.02 29 12.0784C29 11.3622 28.9107 10.6428 28.737 9.94797C28.5803 9.32136 28.3543 8.70854 28.0654 8.13083L27.8947 7.7895C27.3021 6.60425 26.5223 5.5223 25.5853 4.58528L25.2994 4.2994C24.4388 3.43876 23.445 2.7225 22.3564 2.17819L22.311 2.1555C21.4409 1.72044 20.5167 1.40333 19.5627 1.21255C18.856 1.07119 18.137 1 17.4162 1H17.0898C16.366 1 15.6449 1.08877 14.9427 1.26431C14.3161 1.42097 13.7085 1.64573 13.1308 1.93458L12.7895 2.10525C11.6043 2.69787 10.5223 3.4777 9.58528 4.41472L9.23103 4.76897C8.41568 5.58432 7.7371 6.52579 7.22143 7.55714L7.07072 7.85855C6.69237 8.61526 6.42928 9.4243 6.2902 10.2588Z" fill="#00356B" stroke="#00356B"/>
<circle cx="17.5" cy="12.5" r="6.5" fill="white"/>
</svg>
