<svg width="35" height="35" viewBox="0 0 35 35" fill="none" xmlns="http://www.w3.org/2000/svg">
<path fill-rule="evenodd" clip-rule="evenodd" d="M12.8487 4.85669C15.9133 4.21444 19.0893 4.21444 22.1539 4.85669L22.795 4.99104C25.4396 5.54528 27.7384 6.9452 29.3584 8.88361C29.6228 9.20001 29.5339 9.65623 29.1846 9.88752L19.5054 16.297C18.3021 17.0939 16.7005 17.0939 15.4971 16.297L5.81799 9.88753C5.4687 9.65624 5.37981 9.20002 5.64423 8.88362C7.26415 6.9452 9.56298 5.54528 12.2076 4.99104L12.8487 4.85669ZM4.85006 11.937C4.44475 11.6686 3.87975 11.8224 3.72631 12.2674C3.64061 12.5159 3.56394 12.7684 3.49667 13.0247C2.72507 15.9636 2.72507 19.0364 3.49667 21.9754C4.55335 26.0001 7.92761 29.112 12.2076 30.009L12.8487 30.1433C15.9133 30.7856 19.0893 30.7856 22.1539 30.1433L22.795 30.009C27.075 29.112 30.4493 26.0001 31.5059 21.9753C32.2775 19.0364 32.2775 15.9636 31.5059 13.0247C31.4387 12.7684 31.362 12.5159 31.2763 12.2674C31.1228 11.8224 30.5579 11.6685 30.1525 11.9369L20.8415 18.1026C18.836 19.4307 16.1666 19.4307 14.161 18.1026L4.85006 11.937Z" fill="#00356B"/>
</svg>
