<svg width="35" height="35" viewBox="0 0 35 35" fill="none" xmlns="http://www.w3.org/2000/svg">
<path d="M10.3608 4.375C9.8696 4.375 9.3817 4.44989 8.91142 4.59674L8.55194 4.70899C6.45789 5.36286 4.94138 7.23317 4.54715 9.47041C4.31762 10.773 4.31762 12.1116 4.54715 13.4142C4.55618 13.4654 4.56579 13.5165 4.57599 13.5673C6.2184 22.1041 12.8958 28.7815 21.4326 30.424C21.4835 30.4342 21.5345 30.4438 21.5858 30.4529C22.8884 30.6824 24.227 30.6824 25.5296 30.4529C27.7668 30.0586 29.6371 28.5421 30.291 26.4481L30.4033 26.0886C30.5501 25.6183 30.625 25.1304 30.625 24.6392C30.625 22.2781 28.5459 20.5288 26.1947 20.5288H20.9207C18.5695 20.5288 16.4904 22.2781 16.4904 24.6392C16.4904 25.1304 16.5653 25.6183 16.7121 26.0886L16.8244 26.4481C16.8627 26.5708 16.9052 26.6916 16.9517 26.8102C13.1482 24.9374 10.0627 21.8518 8.18976 18.0483C8.30843 18.0948 8.42919 18.1373 8.55193 18.1756L8.91142 18.2879C9.38169 18.4347 9.8696 18.5096 10.3608 18.5096C12.7219 18.5096 14.4712 16.4305 14.4712 14.0793L14.4712 8.80528C14.4712 6.45408 12.7219 4.375 10.3608 4.375Z" fill="#00356B"/>
</svg>
